<?xml version="1.0" standalone="no"?>
<!DOCTYPE svg PUBLIC "-//W3C//DTD SVG 20010904//EN"
 "http://www.w3.org/TR/2001/REC-SVG-20010904/DTD/svg10.dtd">
<svg version="1.0" xmlns="http://www.w3.org/2000/svg"
 width="223.000000pt" height="109.000000pt" viewBox="0 0 223.000000 109.000000"
 preserveAspectRatio="xMidYMid meet">
<metadata>
Created by potrace 1.10, written by Peter Selinger 2001-2011
</metadata>
<g transform="translate(0.000000,109.000000) scale(0.100000,-0.100000)"
fill="#000000" stroke="none">
<path d="M1780 930 c-8 -5 -25 -10 -36 -10 -12 0 -45 -13 -75 -30 -30 -16 -71
-37 -91 -46 -21 -9 -38 -20 -38 -25 0 -12 1 -12 46 8 38 16 50 18 97 13 17 -2
18 -3 5 -7 -24 -6 -22 -19 7 -48 27 -28 47 -31 68 -11 19 20 37 2 37 -38 0
-24 3 -27 10 -16 9 13 10 13 11 0 1 -8 1 -22 0 -30 0 -10 1 -11 5 -2 3 6 10
10 15 6 12 -7 11 2 0 24 -5 9 -18 38 -28 64 -10 27 -21 48 -25 48 -4 0 -20
-13 -36 -29 -17 -19 -33 -27 -40 -22 -10 6 -9 11 3 21 10 8 12 17 6 24 -5 6
-11 16 -13 21 -1 6 -6 9 -10 8 -5 -2 -8 1 -8 6 0 13 27 21 45 15 17 -7 20 7 4
23 -7 7 -3 11 15 11 29 0 48 -18 19 -18 -17 -1 -16 -2 2 -16 11 -8 19 -19 18
-24 -3 -11 34 -33 48 -28 6 2 1 15 -10 30 -25 31 -27 54 -6 62 8 3 15 10 15
16 0 13 -40 13 -60 0z"/>
<path d="M942 574 c-12 -13 -10 -18 10 -38 12 -12 25 -29 27 -37 2 -7 5 -21 8
-30 3 -10 -10 -23 -41 -39 -47 -26 -55 -48 -8 -25 15 8 46 16 69 19 52 6 69
15 112 60 30 31 32 36 15 36 -11 0 -35 -15 -53 -34 -33 -34 -85 -48 -74 -20 5
14 16 18 41 15 6 -1 12 3 12 9 0 6 -4 9 -9 5 -6 -3 -9 4 -8 15 1 20 2 20 19
-2 15 -20 18 -21 23 -6 4 9 5 25 3 34 -4 21 -75 47 -106 39 -15 -4 -21 -2 -17
5 10 15 -8 11 -23 -6z"/>
<path d="M1945 563 c-27 -8 -57 -21 -65 -29 -9 -7 -44 -24 -79 -37 -68 -26
-73 -45 -6 -21 45 15 65 12 65 -11 0 -8 4 -15 9 -15 14 0 32 26 23 34 -4 4 1
12 11 17 9 6 15 14 12 19 -3 5 -1 11 5 15 5 3 10 1 10 -5 0 -7 6 -8 19 0 31
16 36 12 11 -10 -13 -11 -28 -20 -33 -20 -6 0 -8 -2 -5 -5 3 -3 17 -1 31 4 27
11 37 0 37 -40 0 -10 3 -19 8 -20 4 0 15 -2 25 -4 24 -5 21 14 -10 59 l-26 39
21 18 c41 33 20 37 -63 12z"/>
<path d="M1892 449 c-12 -18 -11 -24 3 -38 14 -14 15 -14 10 0 -3 9 1 22 10
29 8 7 15 16 15 21 0 17 -25 9 -38 -12z"/>
<path d="M1955 407 c-1 -38 2 -42 24 -44 13 0 20 2 15 5 -5 4 -11 21 -13 37
-7 60 -26 62 -26 2z"/>
<path d="M633 321 c1 -9 5 -20 8 -26 3 -5 4 -16 3 -22 -1 -7 -2 -20 -3 -29 -1
-10 -7 -14 -17 -10 -8 3 -12 2 -9 -4 3 -6 12 -10 20 -10 20 0 28 -17 17 -36
-8 -14 -13 -10 -32 20 -21 35 -23 36 -40 21 -10 -9 -17 -26 -16 -39 2 -14 -3
-22 -13 -23 -27 -2 -109 -53 -86 -53 11 0 30 7 42 15 11 8 45 15 74 16 64 3
198 62 166 74 -9 4 -29 4 -43 1 -24 -6 -26 -5 -20 19 4 16 0 37 -11 58 -9 17
-16 35 -16 38 1 3 -4 6 -12 6 -8 0 -13 -7 -12 -16z"/>
<path d="M613 313 c4 -18 1 -23 -13 -23 -10 0 -21 6 -23 13 -4 9 -6 9 -6 -1
-1 -7 -5 -10 -11 -7 -5 3 -10 -3 -10 -14 0 -10 -6 -22 -12 -25 -9 -4 -10 -8
-2 -11 6 -3 9 -17 6 -30 -2 -14 0 -25 5 -25 5 0 9 9 10 19 2 30 34 73 49 67 8
-3 14 -1 14 5 0 6 6 7 13 3 7 -5 6 0 -3 11 -8 10 -13 20 -12 22 2 3 0 8 -4 11
-4 4 -4 -3 -1 -15z"/>
<path d="M1312 302 c-18 -2 -30 -8 -27 -13 4 -5 -5 -9 -19 -9 -19 0 -26 -5
-26 -20 0 -25 8 -25 33 -2 19 16 20 16 14 -1 -4 -9 -2 -29 3 -43 9 -24 7 -26
-38 -46 -54 -24 -57 -26 -50 -34 4 -3 15 -1 25 4 10 6 49 12 87 15 56 5 78 12
113 36 24 17 48 31 53 31 17 0 11 17 -7 22 -23 6 -45 -1 -38 -13 4 -5 -1 -6
-9 -3 -8 3 -16 17 -18 32 -4 30 -45 50 -96 44z m98 -86 c0 -7 -10 -16 -22 -19
-13 -3 -33 -9 -45 -12 -19 -6 -23 -4 -23 15 0 15 4 20 15 17 8 -4 17 -2 20 3
10 15 55 12 55 -4z"/>
<path d="M163 230 c-54 -8 -63 -17 -29 -29 14 -6 26 -17 26 -26 0 -8 5 -15 10
-15 6 0 10 -3 10 -8 0 -8 -43 -28 -82 -38 -16 -3 -28 -11 -28 -16 0 -6 8 -7
18 -3 45 18 89 27 118 22 24 -4 51 3 101 28 64 31 67 33 41 40 -16 4 -35 4
-44 1 -12 -4 -15 -2 -11 9 4 8 3 17 -2 19 -20 13 -90 21 -128 16z m111 -53
c16 -12 14 -14 -23 -27 -50 -16 -67 -6 -21 14 21 9 28 15 19 19 -8 3 -9 6 -3
6 5 1 18 -5 28 -12z"/>
<path d="M784 75 c3 -8 2 -14 -2 -14 -20 3 -33 -2 -27 -11 3 -5 0 -10 -7 -10
-9 0 -9 -3 2 -10 13 -9 13 -11 1 -19 -10 -6 1 -9 33 -9 26 1 49 4 51 8 2 4 -7
23 -21 43 -25 38 -41 49 -30 22z"/>
</g>
</svg>
